Coordinates
version=1
nRows=13
nColumns=40
inDegrees=yes

Units are S.I. units (second, meters, Newtons, ...)
Angles are in degrees.

endheader
time	pelvis_tilt	pelvis_list	pelvis_rotation	pelvis_tx	pelvis_ty	pelvis_tz	hip_flexion_r	hip_adduction_r	hip_rotation_r	knee_angle_r	knee_angle_r_beta	ankle_angle_r	subtalar_angle_r	mtp_angle_r	hip_flexion_l	hip_adduction_l	hip_rotation_l	knee_angle_l	knee_angle_l_beta	ankle_angle_l	subtalar_angle_l	mtp_angle_l	lumbar_extension	lumbar_bending	lumbar_rotation	arm_flex_r	arm_add_r	arm_rot_r	elbow_flex_r	pro_sup_r	wrist_flex_r	wrist_dev_r	arm_flex_l	arm_add_l	arm_rot_l	elbow_flex_l	pro_sup_l	wrist_flex_l	wrist_dev_l
     16.86500000	     -2.66075890	     -4.86795859	     13.09666361	      0.91835083	      0.92116262	      0.52950309	      2.15979122	      5.11952274	    -18.01061523	     15.27884323	     15.27884323	     18.04006178	     -4.39659028	     -2.46836058	     27.60169926	     -9.77349428	      3.38617130	     24.43268533	     24.43268533	      7.13914923	    -10.04638241	      5.70550039	     -8.68541132	      4.74066947	      5.65409797	     45.79395961	     -3.23764489	     30.62655101	     99.69122475	     43.68208431	      0.00000000	      0.00000000	     -6.28470517	     -9.76917391	    -21.91313475	     21.63609986	     49.43344541	      0.00000000	      0.00000000
     16.88421429	     -2.60397844	     -5.10120098	     13.35598652	      0.91803512	      0.92008099	      0.52586173	      1.65917090	      5.24890673	    -18.24650049	     15.17874981	     15.17874981	     18.37087831	     -4.24703876	     -2.41668553	     27.43698723	     -9.84866885	      3.32057550	     24.75621090	     24.75621090	      6.73183874	     -9.84273941	      4.70990013	     -8.63052977	      4.87819245	      5.78733646	     46.05756141	     -2.66740348	     32.36312905	    100.10496980	     43.66093643	      0.00000000	      0.00000000	     -6.07464535	     -9.89352702	    -22.20791212	     21.46708778	     49.42491703	      0.00000000	      0.00000000
     16.90342857	     -2.53455178	     -5.28265881	     13.60128660	      0.91770422	      0.91901217	      0.52196763	      1.20066021	      5.30239176	    -18.39169722	     15.20070135	     15.20070135	     18.64113582	     -4.27904268	     -2.44542829	     27.41600942	     -9.80191185	      3.52257800	     25.44969642	     25.44969642	      6.70437083	     -9.96435101	      4.44616889	     -8.58417009	      4.95416751	      5.99682224	     46.02152452	     -1.90412681	     32.95894889	    100.43369595	     43.64059449	      0.00000000	      0.00000000	     -5.79909220	    -10.03387729	    -22.24943715	     21.50087251	     49.42723101	      0.00000000	      0.00000000
     16.92264286	     -2.51889912	     -5.31385433	     13.87123319	      0.91736016	      0.91806083	      0.51775829	      0.75891167	      5.16849043	    -18.55762301	     15.21840299	     15.21840299	     18.88018967	     -4.39599967	     -2.45792553	     27.39492191	     -9.55535582	      3.76203951	     26.13114712	     26.13114712	      6.82862619	    -10.09554465	      4.20805204	     -8.52444369	      4.90587569	      6.24440098	     46.02279566	     -1.32205068	     33.45909919	    100.62597730	     43.62295476	      0.00000000	      0.00000000	     -5.43964887	    -10.26078077	    -22.26850085	     21.60664779	     49.43448238	      0.00000000	      0.00000000
     16.94185714	     -2.45850657	     -5.47695256	     14.10839833	      0.91698223	      0.91706222	      0.51328851	      0.35845978	      5.12363308	    -18.80013071	     15.37464996	     15.37464996	     19.22971494	     -4.25896052	     -2.27774089	     27.57699454	     -9.39280149	      4.21165163	     27.20630683	     27.20630683	      7.06991445	    -10.59999091	      3.93045809	     -8.52674610	      5.06466777	      6.08062410	     46.64786072	     -1.10292387	     35.66513477	    101.10186961	     43.57025843	      0.00000000	      0.00000000	     -5.26080416	    -10.36334283	    -22.48971139	     21.42650978	     49.43646024	      0.00000000	      0.00000000
     16.96107143	     -2.36094034	     -5.49045814	     14.27559151	      0.91668054	      0.91640697	      0.50866332	     -0.12527100	      4.93037176	    -18.86566314	     15.51875281	     15.51875281	     19.42240749	     -4.31691551	     -2.25168080	     27.58173484	     -9.09374630	      4.61314070	     28.17449427	     28.17449427	      7.42170664	    -11.08150822	      3.74726270	     -8.60410790	      5.06387123	      6.36385932	     46.81800411	     -0.67122069	     36.14107257	    101.12448755	     43.56395931	      0.00000000	      0.00000000	     -4.83729494	    -10.49543395	    -22.55128872	     21.59427060	     49.44536617	      0.00000000	      0.00000000
     16.98028571	     -2.30499814	     -5.48010905	     14.38122879	      0.91641689	      0.91590430	      0.50391221	     -0.57472611	      4.68240102	    -18.94846669	     15.65823861	     15.65823861	     19.55887627	     -4.35640831	     -2.21668553	     27.58547232	     -8.75446885	      4.98590466	     29.11825660	     29.11825660	      7.84695373	    -11.69734850	      3.64995693	     -8.62830173	      4.99659961	      6.59070252	     47.01195960	     -0.29984642	     36.68935908	    101.13413719	     43.55420532	      0.00000000	      0.00000000	     -4.38849488	    -10.64218466	    -22.60780891	     21.78360470	     49.45573923	      0.00000000	      0.00000000
     16.99950000	     -2.37573364	     -5.47206089	     14.45501235	      0.91602297	      0.91546603	      0.49877859	     -0.83403929	      4.32278642	    -19.13646924	     15.92342192	     15.92342192	     19.68142040	     -4.19029632	     -2.09755666	     27.62266963	     -8.24993726	      5.64257472	     29.92454586	     29.92454586	      8.43190230	    -12.73755453	      4.30832551	     -8.54879403	      5.02919744	      6.67471122	     47.66564823	     -0.24144845	     38.02502591	    100.95565112	     43.54145765	      0.00000000	      0.00000000	     -4.05341550	    -10.70125727	    -22.85512629	     22.01740771	     49.47524113	      0.00000000	      0.00000000
     17.01871429	     -2.38712272	     -5.40702795	     14.42262054	      0.91572332	      0.91541092	      0.49365844	     -1.16899512	      3.89828467	    -19.27667559	     16.19549898	     16.19549898	     19.72716621	     -3.98180881	     -1.98586603	     27.49724626	     -7.80800743	      5.97155961	     30.64136974	     30.64136974	      9.17143073	    -13.37990735	      5.15783553	     -8.55473951	      4.97236072	      6.75270208	     48.21356564	     -0.02365496	     39.00133313	    100.63680391	     43.55086649	      0.00000000	      0.00000000	     -3.72513450	    -10.78003453	    -23.21057243	     22.39970112	     49.50341398	      0.00000000	      0.00000000
     17.03792857	     -2.40783902	     -5.37911498	     14.34715673	      0.91552873	      0.91554270	      0.48845940	     -1.53011991	      3.53958492	    -19.20848003	     16.36431840	     16.36431840	     19.64285873	     -3.94106910	     -1.95478843	     27.27293366	     -7.48531153	      6.02603291	     31.14863752	     31.14863752	      9.69985036	    -13.74723591	      5.16611361	     -8.53871839	      4.99585185	      6.95312153	     48.30049948	      0.31967393	     39.24937737	    100.57873450	     43.55215490	      0.00000000	      0.00000000	     -3.38106299	    -10.94911044	    -23.29518022	     22.62842599	     49.51614821	      0.00000000	      0.00000000
     17.05714286	     -2.52274464	     -5.31200752	     14.23808896	      0.91516268	      0.91582386	      0.48312672	     -1.69381223	      3.01346101	    -19.37455569	     16.74374964	     16.74374964	     19.53748047	     -3.59679405	     -2.01524310	     27.11290236	     -7.01771311	      6.24734458	     31.68459527	     31.68459527	     11.06668629	    -14.05277847	      7.67145901	     -8.45995187	      4.96800597	      6.71671715	     48.91069523	      0.70215061	     40.25389806	     99.88017337	     43.63703740	      0.00000000	      0.00000000	     -3.43079789	    -10.94300277	    -24.57849240	     23.59215313	     49.57904686	      0.00000000	      0.00000000
     17.07635714	     -2.62404304	     -5.35428549	     14.09461818	      0.91481295	      0.91627400	      0.47785915	     -1.89645860	      2.67262349	    -19.28743447	     16.95716436	     16.95716436	     19.25048536	     -3.56804170	     -1.96477346	     26.82164336	     -6.77972418	      6.18921580	     31.87451735	     31.87451735	     11.47510783	    -14.28968365	      7.55575222	     -8.36640473	      5.04516936	      6.82055467	     49.04653569	      0.90773089	     40.29696552	     99.86362756	     43.64018284	      0.00000000	      0.00000000	     -3.02767951	    -11.17879132	    -24.61242710	     23.79747794	     49.58817977	      0.00000000	      0.00000000
     17.09557143	     -2.77616527	     -5.47557054	     13.93868816	      0.91442566	      0.91684632	      0.47245137	     -2.04907801	      2.40043808	    -19.21177178	     17.10125882	     17.10125882	     18.88708419	     -3.50840166	     -1.87476037	     26.53415134	     -6.61600084	      6.09338048	     31.93338693	     31.93338693	     11.76179841	    -14.42625473	      7.47262538	     -8.14277368	      5.27948977	      6.72004994	     49.10541463	      0.93495965	     40.28840580	     99.86945243	     43.64115365	      0.00000000	      0.00000000	     -2.80102869	    -11.31716082	    -24.61833909	     23.90992873	     49.59326875	      0.00000000	      0.00000000
